<?xml version="1.0" standalone="no"?>
<!DOCTYPE svg PUBLIC "-//W3C//DTD SVG 20010904//EN"
 "http://www.w3.org/TR/2001/REC-SVG-20010904/DTD/svg10.dtd">
<svg version="1.0" xmlns="http://www.w3.org/2000/svg"
 width="300.000000pt" height="238.000000pt" viewBox="0 0 300.000000 238.000000"
 preserveAspectRatio="xMidYMid meet">
<metadata>
Created by potrace 1.10, written by Peter Selinger 2001-2011
</metadata>
<g transform="translate(0.000000,238.000000) scale(0.100000,-0.100000)"
fill="#000000" stroke="none">
<path d="M2393 1488 c-25 -28 -147 -217 -226 -349 -55 -93 -68 -129 -47 -129
6 0 10 -7 10 -15 0 -8 -8 -15 -19 -15 -21 0 -71 -43 -71 -62 0 -19 12 -33 37
-47 25 -13 534 -16 547 -4 5 5 33 8 65 8 54 0 56 1 59 27 2 15 -8 50 -22 79
-29 57 -32 79 -12 79 27 0 57 51 55 92 -3 28 3 44 21 63 30 32 19 58 -26 63
-16 1 -38 7 -49 11 -42 19 -54 19 -89 0 l-36 -19 -25 22 c-14 12 -38 42 -53
65 -15 24 -35 46 -45 49 -12 4 -15 12 -11 29 3 13 1 32 -5 42 -11 17 -11 17
-9 -3 2 -13 -50 -108 -131 -242 -116 -192 -137 -222 -158 -222 -14 0 -23 4
-21 9 9 23 284 477 293 483 7 5 6 8 -1 8 -6 0 -20 -10 -31 -22z m97 -152 c22
-42 23 -47 9 -62 -15 -14 -18 -12 -41 27 -21 35 -24 48 -15 66 12 28 16 26 47
-31z m-61 -55 l20 -39 -33 -43 c-19 -24 -61 -69 -93 -100 -40 -37 -62 -66 -66
-87 -5 -26 -11 -32 -31 -32 -14 0 -28 5 -31 10 -3 6 -2 10 3 10 12 0 67 87
128 205 15 28 30 52 35 53 5 2 9 9 9 15 0 9 29 47 36 47 2 0 13 -18 23 -39z
m158 -59 c7 -2 27 10 44 27 18 18 36 28 42 24 7 -4 20 -6 30 -5 28 5 19 -15
-13 -28 -16 -7 -30 -16 -30 -21 0 -13 6 -11 50 11 46 24 50 24 50 6 0 -7 -21
-21 -47 -31 -52 -19 -70 -31 -61 -41 3 -3 20 2 38 11 18 9 33 15 35 13 1 -2 6
-22 10 -44 l6 -42 -43 -15 c-59 -21 -265 -92 -307 -106 -19 -6 -49 -11 -67
-11 -30 0 -34 3 -34 28 0 21 16 41 65 86 36 33 65 65 65 73 0 7 7 13 15 13 8
0 15 6 15 14 0 8 7 16 15 20 8 3 12 12 9 21 -4 9 0 15 10 15 8 0 23 11 32 25
l16 25 22 -32 c11 -17 27 -33 33 -36z m107 -248 c25 -42 46 -78 46 -80 0 -2
-11 -4 -25 -4 -19 0 -32 14 -66 71 -33 57 -38 73 -28 80 23 14 26 12 73 -67z
m-104 15 c0 -5 -19 -9 -42 -8 l-43 1 35 12 c36 14 50 12 50 -5z m28 -70 c7
-12 12 -22 10 -23 -2 -1 -130 0 -285 2 -274 4 -282 4 -270 23 11 18 27 19 272
19 253 0 261 -1 273 -21z"/>
<path d="M130 1373 c-35 -24 -40 -33 -40 -80 0 -33 5 -46 25 -61 23 -18 43
-20 234 -21 174 -1 210 1 221 14 11 13 15 13 33 0 15 -11 48 -15 114 -15 112
0 129 11 118 74 -3 23 -10 45 -15 50 -13 13 -400 17 -422 5 -18 -10 -89 19
-103 41 -11 17 -137 12 -165 -7z m70 -13 c9 -6 17 -5 22 3 10 17 22 -19 13
-40 -5 -13 -9 -14 -12 -5 -8 22 -41 34 -63 22 -24 -13 -27 -62 -4 -81 12 -10
22 -10 47 -1 37 14 50 6 23 -14 -46 -33 -116 -2 -116 51 0 27 40 75 62 75 7 0
20 -4 28 -10z m90 -20 c0 -28 1 -29 25 -18 32 14 55 -4 55 -43 0 -16 5 -29 10
-29 6 0 10 -4 10 -10 0 -5 -13 -10 -30 -10 -16 0 -30 5 -30 10 0 6 5 10 10 10
12 0 13 30 1 49 -7 10 -13 11 -30 2 -21 -12 -30 -51 -11 -51 6 0 10 -4 10 -10
0 -5 -13 -10 -30 -10 -16 0 -30 5 -30 10 0 6 5 10 10 10 6 0 10 23 10 50 0 29
-5 50 -11 50 -5 0 -7 5 -4 10 14 22 35 10 35 -20z m178 -19 c8 -5 12 -17 10
-27 -3 -14 -12 -19 -36 -19 -18 0 -30 -4 -29 -10 2 -5 18 -10 35 -10 18 0 31
-4 29 -10 -2 -5 -19 -10 -38 -10 -27 0 -35 5 -43 27 -16 45 33 84 72 59z m122
-16 c0 -26 -15 -35 -22 -13 -2 6 -10 8 -16 4 -15 -9 -16 -46 -2 -46 6 0 10 -4
10 -10 0 -5 -17 -10 -37 -10 -34 1 -36 2 -20 14 9 7 17 21 17 31 0 10 -8 24
-17 32 -16 13 -15 14 15 10 18 -2 35 0 38 5 11 18 34 7 34 -17z m106 17 c6 -4
13 -25 16 -48 l6 -41 -44 -1 c-34 0 -47 4 -55 20 -6 11 -8 26 -5 34 3 8 1 14
-4 14 -6 0 -10 5 -10 10 0 6 9 10 20 10 16 0 20 -7 20 -36 0 -28 3 -35 18 -32
13 3 16 12 15 41 -2 37 2 43 23 29z m120 -5 c3 -3 3 -11 -1 -17 -5 -8 -10 -8
-20 0 -8 7 -22 10 -32 8 -13 -3 -8 -9 20 -21 53 -23 48 -51 -11 -55 -32 -2
-42 0 -42 12 0 12 7 14 32 9 22 -4 29 -3 24 5 -4 7 -13 12 -20 12 -8 0 -19 7
-26 15 -18 22 5 45 41 41 16 -1 32 -5 35 -9z"/>
<path d="M901 1373 c-16 -14 -21 -32 -23 -81 -3 -71 5 -82 63 -82 21 0 48 -9
68 -24 36 -27 63 -25 99 9 20 19 32 21 116 18 81 -3 95 -1 110 16 17 19 18 19
37 0 15 -15 33 -19 92 -19 42 0 78 5 85 12 8 8 15 8 24 1 7 -6 36 -9 63 -6 56
4 56 4 140 -1 113 -8 213 -9 223 -2 13 8 52 83 52 101 0 7 -6 17 -12 22 -7 4
-144 8 -303 9 -209 1 -297 4 -314 13 -18 10 -30 10 -59 -2 -27 -10 -75 -13
-180 -11 -126 2 -145 5 -168 23 -33 26 -85 27 -113 4z m102 -17 c-2 -3 -3 -15
-3 -26 0 -20 0 -20 -30 2 -22 16 -33 19 -41 11 -15 -15 -3 -33 20 -33 11 0 29
-9 42 -19 20 -16 22 -23 13 -38 -8 -13 -25 -18 -63 -19 -48 -2 -51 0 -51 23 0
14 3 23 8 21 4 -2 19 -10 34 -17 27 -14 64 -8 54 8 -3 5 -18 12 -33 16 -15 3
-34 11 -40 17 -19 15 -16 45 5 57 18 10 89 8 85 -3z m407 -21 c0 -8 7 -15 16
-15 8 0 12 -5 9 -10 -4 -6 -11 -8 -16 -5 -5 4 -9 -8 -9 -26 0 -29 2 -31 27
-26 15 3 37 1 50 -4 13 -5 25 -4 28 1 3 5 -5 12 -19 16 -59 14 -54 66 6 62 32
-3 43 -12 32 -29 -4 -8 -9 -8 -17 0 -13 13 -37 15 -37 3 0 -4 14 -13 31 -19
21 -8 30 -17 27 -30 -3 -15 -15 -18 -67 -20 -72 -3 -95 9 -88 44 5 29 -12 42
-25 18 -8 -13 -12 -14 -18 -5 -4 7 -13 9 -19 6 -14 -9 -15 -46 -1 -46 6 0 10
-4 10 -10 0 -5 -16 -10 -35 -10 -19 0 -35 5 -35 10 0 6 5 10 10 10 13 0 13 47
0 55 -20 12 1 24 25 15 16 -6 27 -6 31 1 3 6 17 8 30 5 17 -5 24 -2 24 9 0 8
7 15 15 15 8 0 15 -7 15 -15z m-287 -23 c35 -30 6 -88 -40 -79 -15 3 -23 -1
-23 -9 0 -8 5 -14 10 -14 6 0 10 -4 10 -10 0 -5 -13 -10 -30 -10 -16 0 -30 5
-30 10 0 6 5 10 10 10 6 0 10 23 10 50 0 28 -4 50 -10 50 -5 0 -10 4 -10 9 0
15 83 9 103 -7z m108 8 c23 -13 26 -62 5 -79 -46 -38 -111 25 -71 69 20 22 37
25 66 10z m369 0 c0 -5 -4 -10 -9 -10 -5 0 -7 -9 -4 -20 8 -29 17 -25 31 13
l13 32 18 -34 c15 -29 19 -31 25 -15 4 11 3 20 -3 22 -6 2 -11 8 -11 13 0 12
47 12 55 -1 3 -5 2 -10 -3 -10 -6 0 -17 -18 -26 -40 -18 -46 -31 -51 -40 -15
-4 14 -10 25 -15 25 -5 0 -12 -11 -15 -25 -8 -33 -24 -32 -36 3 -6 15 -15 35
-20 44 -14 25 -13 28 15 28 14 0 25 -4 25 -10z m200 -5 c19 -23 4 -45 -30 -45
-20 0 -29 -4 -24 -11 4 -6 19 -9 36 -5 21 4 28 2 26 -7 -6 -17 -56 -21 -74 -6
-19 15 -18 48 3 71 20 22 46 23 63 3z m94 9 c10 -4 16 -18 16 -39 0 -33 13
-46 38 -38 17 7 15 50 -4 57 -8 3 -13 10 -9 16 3 6 15 6 30 0 15 -6 27 -6 30
0 12 20 35 10 35 -15 0 -26 -15 -35 -22 -13 -2 6 -10 8 -16 4 -15 -9 -16 -46
-2 -46 6 0 10 -5 10 -10 0 -16 -158 -10 -171 7 -16 18 6 43 37 43 13 0 24 5
24 11 0 7 -11 9 -30 6 -16 -4 -30 -2 -30 2 0 17 37 25 64 15z"/>
<path d="M1073 1303 c-21 -8 -16 -53 5 -53 28 0 43 20 31 42 -10 19 -15 20
-36 11z"/>
<path d="M1181 1297 c-17 -21 -3 -49 23 -45 15 2 21 10 21 28 0 28 -26 38 -44
17z"/>
<path d="M907 1143 c-8 -18 -7 -73 3 -73 5 0 10 18 10 40 0 38 -4 49 -13 33z"/>
<path d="M1512 1110 c1 -29 2 -35 5 -17 5 30 23 37 24 10 0 -15 2 -15 8 2 10
23 4 38 -11 29 -6 -4 -14 0 -19 7 -6 9 -8 -2 -7 -31z"/>
<path d="M1120 1129 c0 -5 5 -9 10 -9 6 0 10 -9 10 -20 0 -14 -7 -20 -22 -20
-26 0 -16 -13 12 -15 21 -2 32 17 24 39 -4 10 1 14 15 13 13 -1 19 -7 18 -20
-1 -11 4 -22 11 -24 13 -5 16 25 4 44 -9 15 -82 25 -82 12z"/>
<path d="M400 1121 c0 -5 7 -11 15 -15 8 -3 16 -18 16 -33 1 -19 3 -22 6 -10
7 28 -6 67 -22 67 -8 0 -15 -4 -15 -9z"/>
<path d="M464 1104 c-4 -16 -2 -31 7 -39 12 -12 14 -8 14 25 1 45 -11 53 -21
14z"/>
<path d="M775 1120 c3 -5 1 -10 -4 -10 -6 0 -11 -9 -11 -20 0 -11 5 -20 10
-20 6 0 10 6 10 14 0 8 3 21 6 30 3 9 1 16 -6 16 -6 0 -8 -4 -5 -10z"/>
<path d="M1068 1123 c-10 -2 -18 -13 -18 -23 0 -11 -9 -20 -22 -23 -19 -4 -18
-4 5 -6 16 0 35 -8 43 -16 9 -8 21 -15 27 -15 7 0 4 7 -5 14 -10 7 -18 23 -18
34 0 12 8 26 18 31 18 11 4 13 -30 4z"/>
<path d="M1272 1108 c-5 -8 -6 -22 -1 -33 6 -17 8 -17 8 -2 1 9 8 17 16 17 8
0 15 4 15 10 0 5 -7 6 -17 3 -11 -4 -14 -3 -9 5 10 16 1 15 -12 0z"/>
<path d="M940 1091 c0 -11 4 -22 9 -25 11 -7 23 22 15 35 -9 16 -24 10 -24
-10z"/>
</g>
</svg>
